<?xml version="1.0" encoding="utf-8"?>
<!-- Generator: Adobe Illustrator 22.0.0, SVG Export Plug-In . SVG Version: 6.00 Build 0)  -->
<svg version="1.1" id="bird-cells" xmlns="http://www.w3.org/2000/svg" xmlns:xlink="http://www.w3.org/1999/xlink" x="0px" y="0px"
	 viewBox="0 0 3671 510" style="enable-background:new 0 0 3671 510;" xml:space="preserve">
<style type="text/css">
	.st0{fill:none;}
</style>
<g>
	<g>
		<path class="st0" d="M0.5,0.5h359v509H0.5V0.5z"/>
		<path class="st0" d="M359.5,0.5h359v509h-359V0.5z"/>
		<path class="st0" d="M718.5,0.5h359v509h-359V0.5z"/>
		<path class="st0" d="M1077.5,0.5h370v509h-370V0.5z"/>
		<path class="st0" d="M1448.5,0.5h370v509h-370V0.5z"/>
		<path class="st0" d="M1818.5,0.5h370v509h-370V0.5z"/>
		<path class="st0" d="M2189.5,0.5h370v509h-370V0.5z"/>
		<path class="st0" d="M2559.5,0.5h370v509h-370V0.5z"/>
		<path class="st0" d="M2930.5,0.5h370v509h-370V0.5z"/>
		<path class="st0" d="M3300.5,0.5h370v509h-370V0.5z"/>
		<path d="M51,288.4c13.3-5.3,35.3-9.3,66-12c0,0,18.4-10,55-15c1-0.1,7.5-8,36-13c16,0,21-3.9,30,5c3.5-13.5,19.1-16.6,29-15
			c6.9,1.1,11.3,5.9,12,8c4,12,21,5,30,12c-23,6-23,7-32,11c-16,14-31,31-47,31c-16,4-32.8,5.3-50.5,4c-1,4-3.5,6.7-7.5,8
			c-6,2-1-9-4-12s-3,10-17,18c-1-14-5-10-5-18s4,13-17,18c-14,3.3-31.7,4-53,2c26-8.7,41.3-16.3,46-23c-5,0-18-1-21-9
			C87,283.9,70.3,283.9,51,288.4z"/>
		<path d="M521,352"/>
		<path d="M543,367"/>
		<path d="M557,377"/>
		<path d="M572,387"/>
		<path d="M585,401"/>
		<path d="M510,324c0-12-4.7-17-14-15c-8.7-1.3-19.3-1.3-32,0c-19,2-27-5-58-5c10-5,9-13,27-13c-21-3-10-10-45-13c30-8,32,0,54,7
			c68-7,22-15,94-22c14-2,36-4,58,2c5-2,6-5,15-6c8,0,12.7,3.7,14,11c10.7,0.7,16,1.7,16,3c0,2.1-10,3-16,5c-9,1-8,8-14,7
			s-5,8-19,14c2,11,21,9,36,19c29,30.6,18,19,37,63c14,28,18,30,27,57c-1,1-11-1-14-7c-1,5-5,1-4,7c-5-1-8-8-12-11c-4-1,1,7-2,8
			c-4,0-5-8-9-8c-4,1,1,6-2,7"/>
		<path d="M878,345"/>
		<path d="M920,378c-9-9-10-18-25-18"/>
		<path d="M957,423"/>
		<path d="M1004,455"/>
		<path d="M864,336c0-5-2-11-6-14c-3-4-5,0-10,3c-2-5-2-9-1-14c-4-1-14,5-12-2c0-7-4-4-8-4c-5,0,1-5-1-6c-5-2-13,2-21,6
			c-5-2,4-10,0-10c-31-1-38,7-76,4c32-14,56-26,90-40c20-6,37-5,56-8c28,0,17-8,55-3c8-1,11-7.5,19-7c8.7,0,13.3,2.7,14,8l26,5
			l-24,5c-2.7,5.3-8,8.3-16,9c-12,12-11,18-29,21c22,13,23,17,64,38c13,11,13,15,17,31c4,16,14.1,25.7,21,35c26,46,23,59,45,80
			c-11-1-23-8-28-13c-4-1-3,5-3,8c-6-2-8-15-16-13"/>
		<path d="M1228,335.1"/>
		<path d="M1349,439.1c9,6.7,20,9,19,9s-9-11-5-10c3.3,4,7.7,8.3,13,13c0-8-0.7-13.7-2-17c9,14,12,12,28,23c3-13-6-18-15-28
			c19,22,19,20,30,24c-24-30-20-26-29-53c-14-26-24-61-39-75c-18-12-19-17-38-26c-3.3-4.7-7.3-8-12-10c12-2,21.3-5.7,28-11
			c2-5,7-5,11-9c6-1.4,9.7-4.4,11-9l18-6l-18-3c-2-6-5.3-9.4-10-10c-14-1-17,7-22,10c-21-3-19-1-35,0c-30-5-36,4-50,7
			c-36,5-33,9-48,16c-34,18-41,19-75,29c6.7,0.6,14,0,22-2c-14.7,4-21,6.3-19,7c31-5,29,4.2,52,0c11-3,10-9,13-12c2,7,1,7,2,13
			c16-3,21-2,30-2c3,4-3.7,8.6,0,10c4-1.4,9.3-2.7,16-4c-4,4.6-5.7,8.3-5,11"/>
		<path d="M1317,420.1"/>
		<path d="M1307,405.1"/>
		<path d="M1298,394.1"/>
		<path d="M1289,386.1"/>
		<path d="M1277,374.1"/>
		<path d="M1261,354.1"/>
		<path d="M1251,348.1"/>
		<path d="M1713,368c-3,13,2,16,5,27c7-12,5-18,5-19c2,15,15,8,28,33c4-14-16-38-23-73c-4-23-3-28-14-43c-3-7-10-8-13-7
			c8-4,7-8,12-15c15-2,11-5,15-10c-1,0,5-4,23-5c-11-1-12-4-24-6c-3-6-4-5-10-7c-14,0-21,7-29,12c-24-3-31-1-44,2
			c-46,12-43,12-70,23c-46,27-39,30-58,40c23,6,31-3,47-7c-6.7,2.7-8.7,6-6,10c6.7-2.7,11-3.7,13-3c-5,2-9.7,10.6-5,10
			c27-2,30.7-14.3,46-15c-4,5-6,8-4,13c12-3,11-2,18-4c-2,6-3,6,0,15c8.5,2,13-5,13-5c4,4,0,11,0,20c11,0,11,2,15,0c-2,8,2,8,5,14
			c4-8,7-5,14-12c-2,13,5,12,6,21c10-9,11-11,13-21c-4,15,2,17,5,28c4-7,7-7,8-16c1,5,4,7.9,5,6"/>
		<path d="M2119.7,270.4c0-3-11-6-20-6c-1.3-2.7-3.7-5-7-7c-5.3-2.7-12.3-2.7-21,0c-8,1-16-13-8-26c7-3,10-9,11-14c-8-4-11-5-22-4
			c-65,4-85,28-110,50c-8,7,10,5,18,5c-42,0-78,41-72,37s16,6,35-11c2-1-7,5-15,15c21-3,21-6,39-4c-2,7,3.6,7.2,9,8
			c4.3,0.6,9.2-0.4,15,0c12.5,1.4,13-1,18-1c6,0,5.3,0.6,9,0c9-2,7-3,10-7c-3,8,1,11,6,21c7-6,6-14,6-19c0,13-1,9,2,17c6-5,6-4,8-12
			c-3,10-1,17,3,28c5,0,6.8-4.7,10-3c0,5,0,3,6,13c5-5,2,3,7-8c-1,10,4,4,10,18c5-10,3-14-1-23c6,13,8,12,13,19c2-19-1-23-7-36
			c3-19-6-20-5-33.5c8-10.5,15,2,24-6.5c7-1,4-4,9-7C2107.7,268.4,2118.7,274.4,2119.7,270.4z"/>
		<path d="M2336,275.8c-38,9-49,18-68,30c7,4.9,23-5,25-1c-1.5,3.2-11,5.9-28,11c17,2,31,2,42.6-5.1c10.4,1.1,18.6-1.9,21.4-1.9
			c4,6,0,13,7,15c3-5,8-12,9-15c3-2-5,11,3,13c9,0,19,7,36,7c18,0,22-6,42-13c12-1,20-5,25-18c3-8,9-4,18-13c2-2,12-3,16-6
			c-6-3-7-1-16-3c1-5-4.7-10-11-10c-9.2,0-9.5,5.2-21,8c-9,2.2-12.7,3-18-2c-24-15-11-19-32-44c-9-7-12-11-4-21c13-14,17-22,17-32
			c-4-7-85-3-113,34c5.1,1.1,16.8-6.7,20.6-6c4.4,1-18.6,13-9.6,11s15-7,21-7c2.7-0.1-2,2-3,7c3.8,0.9,9.8-1.9,16-3
			c3.5-0.6,7.9,0.3,10,0c-4,3-10,1-20,17"/>
		<path d="M2331,269.8"/>
		<path d="M2327,262.8"/>
		<path d="M2327,246.8"/>
		<path d="M2676,165.7"/>
		<path d="M2704,244.7c-5,0-18,4-26,12c9,2,6,6,14,7c7,3,6,3.4,4,7c-6.5,11.9-5,15-20,23s-26.3,15.8-35,22c-4.6,3.3-7.5,8.2-11,12
			c12-2,12-3,15-2c2,4,1-3,0,11c6-5,16-12,22-16c5,0,13-3,17,0c5,0,0-7,0-9s3.5,5.8,5,4c5-6,4-9,3-14c4,3,1,10.9,6,12
			c19,6,21,5,42-1c1.2-0.1,2.9-0.9,4.3-1c1.2,1.4,0.7,3,3.7,4c1.6-2.4,4.9-3.1,6.8-3.1c0.5,0-0.2-0.9,0-0.9c10,3,17.2,4,32.2,1
			c13-8,24-5,35-17c14-6,14-10,17-16c4-3,9,0,20-4c-0.5-2.4-8-3-20-5c-6.6-3.1-7.7-9-14-9c-13,0-7.8,6.2-21,9c-7.7,1.7-15,2-20,0
			s-6.3-3.7-10-6c-19.2-11.9-10.2,0.3-19.2-20c-10.5-12-10.6-24.6-6.8-42c1-4.5,2.3-8.1,4-11c6-9.8,12.7-30.6,11-45
			c-1.4-12.2-11-14-27-17c-21-4-33-5-58-2c-9,8-21,5-33,21c9-1,7-3,14,3c8-4,15.5-1.3,16-1"/>
		<path d="M3065,178"/>
		<path d="M3064,240c5,5,10,4,8,14s-7,6-12,12c-5,7-3,11-10,17c-9,8-15,4-31,16c-13,7-14,2-30,13c18,2,36,12,68,5c5,2-5,5-2,7
			c14,1,16,3,23,0c-4,3-10.6,8.7-7,9c8.5,0.7,23.4-1,30,0c8.4,1.2,12.8,5,27,5c7.7,0,16.3-8.2,21-7c7.3,1.8,6,2.9,17,0
			c19.3-5.1,24-9,39-19c8-12,13-9,20-21c11-2,18-2,18-5c-8-3-7-2-17-4c-7.6-3.3-5-11-21-13c-16.1,1-15,14-31,13
			c-10.4-0.6-13-7-21-11s-13-5-19-12c-13-42-1.3-9.6-3-59c-0.3-7.6-6-44-1-54c8-3,4.8-13.8,0-22c-32-34-40.2-58-60-79c-4-1,5,12-2,7
			c-8.8-5.1-7-14-23-22c1,5,4,12,2,15c-5-3-14-23-20-23c1,4,8,11,8,23c0,4-14-6-9-1s7,13,9,19c7.3,13.2,17.5,20.7,17.5,19.7
			c-0.1,4.7-12.5-9.7-21.5-8.7c2,5,8,7,10,17c-2,2,0,3-8,0c4,19,14,28,35,41c2.6,4.2-11.1-4.2-14-1c-2.6,2.8,1.7,8.6,5,15"/>
		<path d="M3446.2,217"/>
		<path d="M3446.2,204"/>
		<path d="M3454.2,247c0,9.5,10,13,4,18c2,5-5,9-4,13s5.2,8.5,10,10c3.2,1,9,2,6,3c-6,2-7-1-12,3c-4.3,0-2-6-10-4c-24,4-60,20-73,34
			c-2,3,12-3,21-4c-8,3-20,7-5,6c11,1,28,0,57-5c21.5-0.7,17,7,39,2c11,3,28,6,43-5c14-2,15.6-9.9,33-23c6-2,11-11,14-17
			c7.8-3.5,12-1,18-4c0-2.6-5-4-13-7c-4.3-3.1,0-8-10-10c-17,0-11,9-21,12c-10-1-9-2-21,1c-4.1,1-3.9-10.8-6-13c-3-3.1-5-3-10-8
			c-3-11,6-24,3-45c-1.3-9.3-4.7-21.6-9-33c-2.4-13.1-2-10-13-23c-21-28-37-37-47-67c-5-4.6-0.7,12.4-5,11c-7.7-2.6-15.4-19-19-19
			c-2.9,0,7.5,17.9,4,23c-3,4.4-17-7.7-17-5c0,3.3,8,16,15,19c-4,4-9.5-4.6-11-1c7,9,1,11,6,24c5.8,12.1,11,8,16,18
			c-3.6,4.2-24.5-6.8-26-3c-1,2.5,9.7,2.7,17,10c6,6,1.8,13.5,6,16c5,3,2,6,8,13"/>
		<path d="M3450.2,235"/>
	</g>
</g>
</svg>
